# xmcd
#
# Track frame offsets: 
#        150
#        15515
#        28627
#        46672
#        61777
#        75900
#        93757
#        110050
#        127635
#        142920
#
# Disc length: 2140 seconds
#
# Revision: 2
# Processed by: cddbd v1.4PL0 Copyright (c) Steve Scherf et al.
# Submitted via: ExactAudioCopy v0.90b4
#
DISCID=63085a0a
DTITLE=Bryan White - Bryan White
DYEAR=1994
DGENRE=Country
TTITLE0=Eugene You Genius
TTITLE1=You Know How I Feel
TTITLE2=This Town
TTITLE3=Someone Else's Star
TTITLE4=Look At Me Now
TTITLE5=Rebecca Lynn
TTITLE6=Me and the Moon
TTITLE7=Nothing Less Than Love
TTITLE8=Going, Going, Gone
TTITLE9=Helpless Heart
EXTD=
EXTT0=
EXTT1=
EXTT2=
EXTT3=
EXTT4=
EXTT5=
EXTT6=
EXTT7=
EXTT8=
EXTT9=
PLAYORDER=
